<svg viewBox="0 -65 1300 300" id="web-logo">
<g id="XMLID_3_">
	<g>
		<path class="st0" d="M4 4v160h447V4H4zM78 133H63V93H34v40H18V34h16v40h29V34h15V133zM107.9 70.8c0.9 2.6 2.3 4.5 4.1 5.4l33.4 16.6c1.9 1 5.1 1.2 7.1 0.5l56.4-20.1c2-0.7 4 1.2 4.4 4.3 0.5 3.1 0.8 5.6 0.8 5.6l-62 22.1c-2 0.7-5.2 0.5-7.1-0.5 -8.4-4.2-29.1-14.5-29.1-14.5 -3.7-1.8-7.7 1.3-8.8 7.1 -0.6 2.8-0.4 5.7 0.4 8.3 0.9 2.6 2.3 4.5 4.1 5.4l33.4 16.6c1.9 1 5.1 1.2 7.1 0.5l56.4-20.1c2-0.7 4 1.2 4.4 4.3 0.5 3.1 0.8 5.6 0.8 5.6l-62 22.1c-2 0.7-5.2 0.5-7.1-0.5 -8.4-4.2-28.8-14.3-28.8-14.3l-11.1-7.1c-1.6-1.9-2.9-4.4-3.9-7.2 -1.8-5.3-2.1-11.4-0.9-17.1 0.9-4.5 2.6-8.1 4.9-10.8 -1.5-1.9-2.7-4.2-3.6-7 -1.8-5.3-2.1-11.4-0.9-17.1 2-9.9 8.1-16 14.5-15.5l49-14.8c4-1.2 10.5-1.5 14.5-0.6l36.6 8c0.1 0 0.2-0.1 0.3-0.1l1.4 11.3c-0.4 0.1-38.8 12-56.6 18.9 -14.1 5.4-22 0.9-23.7-0.2L116 55.3c-3.6-1.8-7.6 1.4-8.8 7.1C106.8 65.3 107 68.3 107.9 70.8zM269.6 41.1c-0.7 2.7-2.5 9.5-5.4 20.4 -2.2 7.9-3.8 16.4-4.9 25.7 -1.1 9.3-1.7 16.6-1.7 21.8 0 5.6 0.4 12.2 1.3 19.9 0.2 2.1 0.3 3.4 0.3 3.9 0 2.6-1 4.9-2.9 6.8s-4 2.8-6.3 2.8c-3.1 0-5.3-1.5-6.6-4.4 -1.3-2.9-1.9-8-1.9-15.2 0-15.4 1.8-33.6 5.4-54.5s6.6-33.3 8.9-37c2.3-3.8 4.9-5.7 7.7-5.7 4.7 0 7.1 2.6 7.1 7.8C270.6 35.8 270.3 38.3 269.6 41.1zM322.8 41.1c-0.7 2.7-2.5 9.5-5.4 20.4 -2.2 7.9-3.8 16.4-4.9 25.7 -1.1 9.3-1.7 16.6-1.7 21.8 0 5.6 0.4 12.2 1.3 19.9 0.2 2.1 0.3 3.4 0.3 3.9 0 2.6-1 4.9-2.9 6.8s-4 2.8-6.3 2.8c-3.1 0-5.3-1.5-6.6-4.4 -1.3-2.9-1.9-8-1.9-15.2 0-15.4 1.8-33.6 5.4-54.5s6.6-33.3 8.9-37c2.3-3.8 4.9-5.7 7.7-5.7 4.7 0 7.1 2.6 7.1 7.8C323.7 35.8 323.4 38.3 322.8 41.1zM422.5 119.3c-8.6 9.1-19.9 13.6-33.8 13.6 -13.5 0-24.6-4.4-33.1-13.2 -8.5-8.8-12.8-20.3-12.8-34.4 0-14.9 4.3-27 13-36.3 8.7-9.2 20.1-13.8 34.4-13.8 13.5 0 24.4 4.4 32.7 13.2 8.3 8.8 12.5 20.5 12.5 34.9C435.4 98.3 431.1 110.1 422.5 119.3z"
		/>
		<path class="st0" d="M389.6 53.4c-7.5 0-13.4 2.8-17.8 8.4s-6.6 13-6.6 22.2c0 9.4 2.2 16.8 6.6 22.2 4.4 5.4 10.2 8.2 17.3 8.2 7.3 0 13.2-2.6 17.5-7.9s6.5-12.6 6.5-22c0-9.8-2.1-17.4-6.3-22.9C402.6 56.3 396.8 53.4 389.6 53.4z"
		/>
	</g>
	<g>
		<path class="st1" d="M452.8 162.8V5.3h57.3c17.6 0 31.1 3.2 40.5 9.7 9.4 6.4 14.2 15.5 14.2 27.2 0 8.5-2.9 15.9-8.6 22.3 -5.7 6.4-13.1 10.8-22 13.3v0.4c11.2 1.4 20.1 5.5 26.8 12.4s10 15.3 10 25.1c0 14.4-5.2 25.9-15.5 34.3 -10.3 8.5-24.4 12.7-42.3 12.7h-60.4V162.8zM488.3 31.4v37.3h15.6c7.3 0 13.1-1.8 17.3-5.3s6.3-8.4 6.3-14.7c0-11.6-8.6-17.3-25.9-17.3H488.3zM488.3 95v41.5h19.2c8.2 0 14.6-1.9 19.3-5.7 4.6-3.8 7-9 7-15.6 0-6.3-2.3-11.2-6.9-14.8 -4.6-3.6-11-5.4-19.2-5.4H488.3z"
		/>
		<path class="st1" d="M663.5 165.4c-22.5 0-40.9-7.3-55.1-22 -14.2-14.7-21.3-33.8-21.3-57.4 0-24.9 7.2-45 21.6-60.4C623.1 10.3 642.2 2.5 666 2.5c22.5 0 40.6 7.4 54.5 22.1s20.8 34.1 20.8 58.2c0 24.7-7.2 44.7-21.6 59.8C705.4 157.8 686.7 165.4 663.5 165.4zM665.1 33.1c-12.4 0-22.3 4.7-29.6 14s-11 21.7-11 37.1c0 15.6 3.7 27.9 11 37s16.9 13.6 28.8 13.6c12.2 0 21.9-4.4 29.1-13.2 7.2-8.8 10.8-21.1 10.8-36.7 0-16.3-3.5-29-10.4-38.1C686.7 37.8 677.1 33.1 665.1 33.1z"
		/>
		<path class="st1" d="M834 165.4c-22.5 0-40.9-7.3-55.1-22 -14.2-14.7-21.3-33.8-21.3-57.4 0-24.9 7.2-45 21.6-60.4 14.4-15.4 33.5-23.1 57.3-23.1 22.5 0 40.6 7.4 54.5 22.1s20.8 34.1 20.8 58.2c0 24.7-7.2 44.7-21.6 59.8C875.9 157.8 857.2 165.4 834 165.4zM835.6 33.1c-12.4 0-22.3 4.7-29.6 14s-11 21.7-11 37.1c0 15.6 3.7 27.9 11 37s16.9 13.6 28.8 13.6c12.2 0 21.9-4.4 29.1-13.2 7.2-8.8 10.8-21.1 10.8-36.7 0-16.3-3.5-29-10.4-38.1C857.2 37.8 847.6 33.1 835.6 33.1z"
		/>
		<path class="st1" d="M1068.9 162.8h-44.8l-45.9-68.4c-0.9-1.3-2.3-4.2-4.2-8.7h-0.5v77.1H938V5.3h35.5v74.4h0.5c0.9-2 2.3-5 4.4-8.8l43.5-65.7h42.3l-54.9 75.1L1068.9 162.8z"
		/>
		<path class="st1" d="M1076.7 156.6v-35.1c6.4 5.3 13.3 9.4 20.8 12 7.5 2.7 15 4 22.6 4 4.5 0 8.4-0.4 11.7-1.2 3.3-0.8 6.1-1.9 8.3-3.3 2.2-1.4 3.9-3.1 5-5.1 1.1-1.9 1.6-4 1.6-6.3 0-3.1-0.9-5.8-2.6-8.2s-4.2-4.6-7.2-6.7c-3-2-6.6-4-10.8-5.9 -4.2-1.9-8.7-3.8-13.5-5.8 -12.3-5.1-21.5-11.4-27.5-18.8S1076 60 1076 49.5c0-8.2 1.6-15.2 4.9-21.1s7.8-10.7 13.4-14.5c5.7-3.8 12.2-6.6 19.7-8.4s15.4-2.7 23.7-2.7c8.2 0 15.5 0.5 21.8 1.5s12.2 2.5 17.5 4.6v32.8c-2.6-1.8-5.5-3.4-8.6-4.8s-6.3-2.5-9.6-3.5c-3.3-0.9-6.6-1.6-9.8-2 -3.3-0.4-6.4-0.7-9.3-0.7 -4 0-7.7 0.4-11 1.2 -3.3 0.8-6.1 1.8-8.3 3.2 -2.3 1.4-4 3.1-5.3 5 -1.2 1.9-1.9 4.1-1.9 6.5 0 2.6 0.7 5 2.1 7.1s3.4 4.1 5.9 5.9c2.6 1.9 5.7 3.7 9.3 5.5 3.7 1.8 7.8 3.6 12.4 5.5 6.3 2.6 11.9 5.4 17 8.4 5 3 9.3 6.3 12.9 10s6.3 8 8.2 12.8c1.9 4.8 2.9 10.4 2.9 16.7 0 8.8-1.7 16.2-5 22.1 -3.3 6-7.8 10.8-13.6 14.5 -5.7 3.7-12.4 6.4-19.9 8 -7.6 1.6-15.6 2.4-24 2.4 -8.6 0-16.9-0.7-24.6-2.2S1082.4 159.6 1076.7 156.6z"
		/>
	</g>
</g>
</svg>
